<svg width="36" height="28" viewBox="0 0 36 28" fill="none" xmlns="http://www.w3.org/2000/svg">
<path d="M34.5458 12.2562H1.4542C0.651094 12.2562 0 12.9795 0 13.8719C0 14.7644 0.651094 15.4877 1.4542 15.4877H34.5458C35.349 15.4877 36 14.7644 36 13.8719C36 12.9796 35.349 12.2562 34.5458 12.2562Z" fill="#71E5DF"/>
<path d="M34.5458 0H1.4542C0.651094 0 0 0.723437 0 1.61578C0 2.50812 0.651094 3.23156 1.4542 3.23156H34.5458C35.349 3.23156 36 2.50812 36 1.61578C36 0.723437 35.349 0 34.5458 0Z" fill="#71E5DF"/>
<path d="M34.5458 24.5123H1.4542C0.651094 24.5123 0 25.2357 0 26.1281C0 27.0205 0.651094 27.7439 1.4542 27.7439H34.5458C35.349 27.7439 36 27.0205 36 26.1281C36 25.2357 35.349 24.5123 34.5458 24.5123Z" fill="#71E5DF"/>
</svg>
