<svg width="44" height="71" viewBox="0 0 44 71" fill="none" xmlns="http://www.w3.org/2000/svg">
<path d="M36.3653 59.8205C35.7295 59.722 35.2496 59.6538 34.8589 59.5987C33.6587 59.4283 33.3365 59.3826 31.9335 58.9458C31.3805 58.7736 29.2175 56.592 29.2175 52.3222C29.2175 46.8216 30.5236 41.964 31.0847 40.1311C31.0996 40.0833 31.1361 39.9448 31.1868 39.7574C31.2796 39.4132 31.9605 37.3348 31.9605 37.3348C32.3296 36.2775 32.7117 35.1838 32.9599 34.0604L32.9732 34.0028C33.3479 32.3762 34.5778 26.4305 34.665 18.2061C34.665 17.3762 33.9751 16.6542 33.5631 16.2229C33.4877 16.1437 33.4208 16.0744 33.3709 16.0161C32.9742 15.5548 32.4519 14.9852 31.847 14.3262C31.4485 13.8916 31.0097 13.4127 30.5367 12.8889C29.7802 12.0522 28.9366 11.2867 28.1204 10.5467C27.1168 9.63719 26.0797 8.69664 25.2273 7.63629C23.9535 6.05214 22.7758 3.27945 22.9889 1.04484C23.0213 0.707708 22.9426 0.416477 22.7676 0.224101C22.5733 0.0102022 22.2686 -0.0564627 22.0002 0.0496298C21.7314 -0.0564627 21.4265 0.0102022 21.2326 0.224101C21.0577 0.416477 20.9787 0.707708 21.0115 1.04484C21.2242 3.27945 20.0465 6.05214 18.773 7.63629C17.9203 8.69664 16.8832 9.63719 15.8796 10.5467C15.0638 11.2867 14.2196 12.0522 13.4635 12.8889C12.9907 13.4127 12.5513 13.8916 12.153 14.3262C11.5479 14.9852 11.026 15.5548 10.6289 16.0161C10.579 16.0744 10.5127 16.1437 10.4371 16.2229C10.0251 16.6542 9.335 17.3762 9.335 18.2103C9.42242 26.4305 10.6523 32.3762 11.027 34.0028L11.0401 34.0604C11.2883 35.1838 11.6706 36.2776 12.0393 37.3348C12.0393 37.3348 12.7201 39.4132 12.8128 39.7574C12.8637 39.9448 12.9004 40.0833 12.9153 40.1311C13.4762 41.964 14.7821 46.8216 14.7821 52.3222C14.7821 56.5922 12.6193 58.7736 12.0665 58.9458C10.6635 59.3826 10.3411 59.4283 9.14071 59.5987C8.75006 59.6538 8.27045 59.722 7.63466 59.8205C0.743981 60.5538 0 63.9744 0 65.4114C0 65.7965 0.199423 67.0479 1.10892 68.2016C1.92624 69.2381 3.554 70.4745 6.66973 70.4745C7.13715 70.4745 7.63161 70.4467 8.13979 70.3918C10.2134 70.169 12.3033 69.8341 14.324 69.5105C15.0581 69.393 15.7908 69.2756 16.5249 69.1631C17.5028 69.0132 19.2652 68.9137 21.7625 68.868C21.8794 68.8657 21.9608 68.864 22.0002 68.8629C22.0396 68.864 22.1209 68.8659 22.2375 68.868C24.7352 68.9137 26.4974 69.0132 27.4755 69.1631C28.2092 69.2756 28.9421 69.393 29.676 69.5105C31.6969 69.8341 33.7869 70.169 35.8602 70.3918C36.3684 70.4465 36.8629 70.4745 37.3303 70.4745C40.4466 70.4745 42.0747 69.2387 42.8915 68.2016C43.801 67.0481 44 65.7963 44 65.4114C43.9996 63.9744 43.256 60.5538 36.3653 59.8205ZM25.6437 31.8157C25.541 31.8157 25.4437 31.7934 25.3452 31.7467C25.0247 31.6189 24.6136 31.0065 24.5754 30.7688C26.1719 29.658 27.2505 27.548 27.2505 25.1261C27.2505 21.5496 26.873 18.6501 21.9998 18.6501C17.1266 18.6501 16.7491 21.5496 16.7491 25.1261C16.7491 27.548 17.8277 29.658 19.4241 30.7688C19.3865 31.006 18.9662 31.5892 18.6544 31.7467C18.5561 31.7934 18.4589 31.8157 18.3559 31.8157C17.3298 31.816 16.0438 29.5687 15.7061 28.6744C15.1307 27.155 14.4124 24.5435 14.2583 20.7323L14.252 20.5857C14.2126 19.7828 15.4219 17.7297 15.5821 17.3785C15.8023 16.8949 18.6589 12.5405 19.5073 11.509C19.8077 11.1442 21.3293 9.12368 22 8.23189C22.6705 9.12368 24.1919 11.1442 24.4921 11.509C25.3411 12.5405 28.197 16.8949 28.4175 17.3785C28.5779 17.7297 29.7872 19.7828 29.748 20.5857L29.7417 20.7323C29.5874 24.5437 28.8695 27.1552 28.2936 28.6744C27.9558 29.5685 26.6702 31.8157 25.6437 31.8157Z" fill="#71E5DF"/>
</svg>
