<svg width="28" height="28" viewBox="0 0 28 28" fill="none" xmlns="http://www.w3.org/2000/svg">
<path d="M14.6363 22.2727V14.6364H22.2727V13.3637H14.6363V5.72729H13.3636V13.3637H5.72723V14.6364H13.3636V22.2727H14.6363Z" fill="black"/>
<path d="M28 14C28 6.26816 21.7318 0 14 0C6.26816 0 0 6.26816 0 14C0 21.7318 6.26816 28 14 28C21.7318 28 28 21.7318 28 14ZM1.27272 14C1.27272 6.97072 6.97072 1.27272 14 1.27272C21.0293 1.27272 26.7273 6.97072 26.7273 14C26.7273 21.0293 21.0293 26.7273 14 26.7273C6.97072 26.7273 1.27272 21.0293 1.27272 14Z" fill="white"/>
</svg>
