<svg width="17" height="22" viewBox="0 0 17 22" fill="none" xmlns="http://www.w3.org/2000/svg">
<path d="M8.36661 10.7594C10.8126 10.7594 12.7957 8.35088 12.7957 5.37975C12.7957 2.40856 12.1446 0 8.36661 0C4.58858 0 3.93738 2.40856 3.93738 5.37975C3.93738 8.35088 5.92046 10.7594 8.36661 10.7594Z" fill="#71E5DF"/>
<path d="M0.000871897 18.9736C0.000116812 18.7925 -0.000638273 18.9226 0.000871897 18.9736V18.9736Z" fill="#71E5DF"/>
<path d="M16.7319 19.1151C16.7343 19.0655 16.7327 18.771 16.7319 19.1151V19.1151Z" fill="#71E5DF"/>
<path d="M16.7225 18.7564C16.6405 13.5806 15.9645 12.1058 10.7918 11.1722C10.7918 11.1722 10.0637 12.1001 8.36654 12.1001C6.6694 12.1001 5.94114 11.1722 5.94114 11.1722C0.824881 12.0956 0.107807 13.5486 0.0135211 18.5883C0.00578967 18.9998 0.00220683 19.0214 0.000823975 18.9736C0.00113826 19.0631 0.00151526 19.2287 0.00151526 19.5174C0.00151526 19.5174 1.23301 22 8.36654 22C15.4999 22 16.7316 19.5174 16.7316 19.5174C16.7316 19.3319 16.7317 19.2029 16.7319 19.1152C16.7305 19.1447 16.7277 19.0875 16.7225 18.7564Z" fill="#71E5DF"/>
</svg>
